<svg width="34" height="28" viewBox="0 0 34 28" fill="none" xmlns="http://www.w3.org/2000/svg">
<g id="&#240;&#159;&#166;&#134; icon &#34;profile circle&#34;">
<g id="Group">
<path id="Vector" opacity="0.4" d="M16.7791 28C26.0458 28 33.5581 21.7321 33.5581 14C33.5581 6.26801 26.0458 0 16.7791 0C7.51223 0 0 6.26801 0 14C0 21.7321 7.51223 28 16.7791 28Z" fill="white"/>
<path id="Vector_2" d="M16.7791 6.90186C13.3058 6.90186 10.4869 9.25386 10.4869 12.1518C10.4869 14.9938 13.1548 17.3038 16.6952 17.3878H16.8462H16.9636H16.9972C20.3865 17.2898 23.0544 14.9938 23.0712 12.1518C23.0712 9.25386 20.2523 6.90186 16.7791 6.90186Z" fill="white"/>
<path id="Vector_3" d="M28.1564 24.2896C25.1698 26.5856 21.1764 27.9996 16.7802 27.9996C12.3841 27.9996 8.39072 26.5856 5.40405 24.2896C5.80675 23.0156 6.89739 21.8536 8.4914 20.9576C13.0721 18.4096 20.522 18.4096 25.0691 20.9576C26.6799 21.8536 27.7538 23.0156 28.1564 24.2896Z" fill="white"/>
</g>
</g>
</svg>
