<svg width="37" height="32" viewBox="0 0 37 32" fill="none" xmlns="http://www.w3.org/2000/svg">
<g id="&#240;&#159;&#166;&#134; icon &#34;food kitchenware chef toque hat cook gear chef cooking nutrition tools clothes hat clothing&#34;">
<g id="Group">
<path id="Vector" d="M7.86518 15.772C4.51794 15.2368 2 12.9224 2 10.1485C2 6.97826 5.28874 4.40831 9.34559 4.40831C10.3064 4.40831 11.224 4.55245 12.0651 4.81454C13.3901 3.12625 15.7735 2 18.4937 2C21.2155 2 23.6003 3.12766 24.9247 4.81773C25.7686 4.5536 26.6897 4.40831 27.6545 4.40831C31.7114 4.40831 35 6.97826 35 10.1485C35 12.9223 32.4824 15.2365 29.1353 15.7719C29.2374 16.9913 29.3068 18.2295 29.3068 19.4832C29.3068 21.9477 29.0391 24.352 28.7809 26.6716C28.746 26.9853 28.7113 27.2974 28.6774 27.6078C28.5563 28.7174 27.5409 29.613 26.2398 29.7082C20.9275 30.0973 16.0731 30.0973 10.7608 29.7082C9.45964 29.613 8.44418 28.7174 8.32313 27.6078C8.28927 27.2974 8.25454 26.9853 8.21964 26.6716C7.96152 24.352 7.69391 21.9477 7.69391 19.4832C7.69391 18.2295 7.76315 16.9914 7.86518 15.772Z" fill="white" stroke="#7E140D" stroke-width="3.22" stroke-linejoin="round"/>
<path id="Vector_2" d="M29.0995 23.6061C29.0066 24.6426 28.8928 25.6651 28.7809 26.6716C28.7459 26.9853 28.7113 27.2974 28.6774 27.6078C28.5563 28.7174 27.5406 29.613 26.2396 29.7082C20.9273 30.0973 16.0729 30.0973 10.7607 29.7082C9.45948 29.613 8.44405 28.7174 8.323 27.6078C8.28911 27.2974 8.25438 26.9853 8.21949 26.6716C8.10746 25.6651 7.99368 24.6426 7.90076 23.6061C11.3324 23.5273 14.8759 23.4505 18.5002 23.4505C22.1245 23.4505 25.668 23.5273 29.0995 23.6061Z" fill="white" stroke="#7E140D" stroke-width="3.22"/>
</g>
</g>
</svg>
