<svg width="55" height="46" viewBox="0 0 55 46" fill="none" xmlns="http://www.w3.org/2000/svg">
<g id="&#240;&#159;&#166;&#134; icon &#34;search outline&#34;">
<path id="Vector" d="M46.7406 41.607L39.3031 33.7809C41.7028 30.5545 43.0048 26.5703 43 22.4688C43 18.816 41.9737 15.2452 40.0507 12.2081C38.1278 9.1709 35.3947 6.80371 32.197 5.40586C28.9993 4.008 25.4806 3.64226 22.0859 4.35488C18.6913 5.0675 15.5731 6.82648 13.1256 9.40938C10.6782 11.9923 9.01151 15.2831 8.33627 18.8657C7.66102 22.4483 8.00758 26.1617 9.33212 29.5365C10.6566 32.9112 12.8997 35.7956 15.7775 37.825C18.6554 39.8543 22.0388 40.9375 25.5 40.9375C29.3864 40.9426 33.1616 39.5685 36.2188 37.036L43.6344 44.8852C43.8377 45.1016 44.0797 45.2733 44.3463 45.3905C44.6128 45.5078 44.8987 45.5681 45.1875 45.5681C45.4763 45.5681 45.7622 45.5078 46.0288 45.3905C46.2953 45.2733 46.5373 45.1016 46.7406 44.8852C46.9457 44.6706 47.1084 44.4153 47.2195 44.1339C47.3305 43.8526 47.3877 43.5509 47.3877 43.2461C47.3877 42.9414 47.3305 42.6396 47.2195 42.3583C47.1084 42.077 46.9457 41.8216 46.7406 41.607ZM12.375 22.4688C12.375 19.7292 13.1448 17.0511 14.587 14.7732C16.0292 12.4954 18.079 10.72 20.4773 9.67158C22.8756 8.62319 25.5146 8.34889 28.0606 8.88335C30.6066 9.41782 32.9452 10.7371 34.7808 12.6742C36.6164 14.6114 37.8664 17.0795 38.3728 19.7665C38.8793 22.4534 38.6193 25.2385 37.6259 27.7695C36.6325 30.3006 34.9503 32.4639 32.7919 33.9859C30.6335 35.5079 28.0959 36.3203 25.5 36.3203C22.019 36.3203 18.6806 34.861 16.2192 32.2633C13.7578 29.6656 12.375 26.1424 12.375 22.4688Z" fill="white"/>
</g>
</svg>
